<svg xmlns="http://www.w3.org/2000/svg" xmlns:xlink="http://www.w3.org/1999/xlink" xmlns:fi="http://pattern.flaticon.com/" width="600" height="300" viewBox="0 0 700 350"><rect width="100%" height="100%" fill="#edf1f2"/><defs><g id="a" fill="#ccc"><path d="M128 64.5h16v16h-16zm0 0M208 64.5h16v16h-16zm0 0" transform="matrix(.1346 0 0 .1346 39.698 67.077)"/><path d="M472 80.5H352v-72a8 8 0 0 0-8-8H8a8 8 0 0 0-8 8v208a8 8 0 0 0 8 8h48a8 8 0 0 0 8-8v-152h16v288c-8.832.008-15.992 7.168-16 16v40a8 8 0 0 0 8 8h64a8 8 0 0 0 8-8v-88h64v32c-8.832.008-15.992 7.168-16 16v40a8 8 0 0 0 8 8h64a8 8 0 0 0 8-8v-88h112v32c-8.832.008-15.992 7.168-16 16v40a8 8 0 0 0 8 8h64a8 8 0 0 0 8-8v-280h24a8 8 0 0 0 8-8v-32a8 8 0 0 0-8-8zm-136 128h-32v-152a8 8 0 0 0-8-8h-24v-32h64zm-64-144h16v16h-16zm-16 144h-36.254l-33.777-40.531 28.687-43.031A8 8 0 0 0 208 112.5h-64a8 8 0 1 0-6.656 12.438l28.687 43.03-33.777 40.532H96v-192h160zm-97.05-80h34.1L176 154.078zM176 180.996l22.922 27.504h-45.844zM56 48.5a8 8 0 0 0-8 8v152H16v-192h64v32zm376 352h-16v-8a8 8 0 0 0-16 0v8h-16v-32h8a8 8 0 0 0 8-8v-48a8 8 0 0 0-8-8H264a8 8 0 0 0-8 8v88h-16v-8a8 8 0 0 0-16 0v8h-16v-32h8a8 8 0 0 0 8-8v-48a8 8 0 0 0-8-8h-80a8 8 0 0 0-8 8v88h-16v-8a8 8 0 0 0-16 0v8H80v-32h8a8 8 0 0 0 8-8v-136h168a8 8 0 0 0 8-8v-120h16v120a8 8 0 0 0 8 8h48a8 8 0 0 0 8-8v-120h80zm32-288h-16v-16h16zm0 0" transform="matrix(.1346 0 0 .1346 39.698 67.077)"/></g><g id="c" fill="#ccc"><path d="M247.949 182.841c-6.462-9.806-24.301-28.981-53.021-56.996-12.624-12.313-29.287-19.093-46.926-19.093h-.028c-17.649.008-34.318 6.803-46.937 19.134-28.574 27.923-46.354 47.088-52.85 56.965-6.741 10.257-14.338 24.68-13.23 45.344.874 16.327 7.786 31.658 19.464 43.168 11.879 11.709 27.402 18.157 43.71 18.157 18.916 0 34.932-11.297 45.036-20.774 2.7-2.533 6.77-2.501 9.465.073 14.18 13.543 29.874 20.701 45.385 20.701 16.306 0 31.829-6.448 43.709-18.157 11.677-11.511 18.589-26.841 19.463-43.17 1.117-20.945-7.021-35.914-13.24-45.352zm-6.732 44.284c-1.251 23.376-20.63 42.394-43.2 42.394-12.971 0-24.328-8.246-31.572-15.164a26.86 26.86 0 0 0-18.598-7.454c-6.6 0-13.201 2.417-18.361 7.255-7.472 7.008-18.977 15.362-31.355 15.362-22.571 0-41.952-19.017-43.203-42.395-.63-11.741 2.352-21.697 9.97-33.286 3.212-4.883 13.994-18.347 50.117-53.649 18.173-17.758 47.757-17.77 65.948-.027 36.314 35.422 47.093 48.839 50.286 53.684 7.615 11.557 10.596 21.51 9.968 33.28z" transform="matrix(.11719 0 0 .11719 211 231)"/><path d="M109.509 173.886c-21.182 21.554-26.711 29.131-27.903 30.944-5.288 8.044-7.105 13.796-6.708 21.223.687 12.816 11.013 23.342 23.019 23.466l.105.001c5.475 0 9.941-4.41 9.998-9.897.057-5.523-4.374-10.046-9.896-10.103-1.058-.011-3.111-1.889-3.253-4.536-.105-1.945-.195-3.625 3.441-9.156.172-.258 4.465-6.556 25.462-27.923 3.871-3.94 3.816-10.271-.123-14.142-3.94-3.871-10.271-3.816-14.142.123zM214.547 204.847c-1.636-2.481-9.467-12.015-27.399-30.342-3.863-3.948-10.195-4.016-14.142-.154-3.947 3.863-4.016 10.194-.154 14.142 18.827 19.243 24.596 26.839 25.072 27.478 3.543 5.403 3.454 7.079 3.35 9.017-.14 2.618-2.225 4.532-3.257 4.532-5.523 0-10 4.477-10 10s4.477 10 10 10c12.115 0 22.536-10.525 23.229-23.465.393-7.35-1.485-13.295-6.699-21.208zM103.137 0C79.555 0 60.369 24.214 60.369 53.978c0 29.762 19.186 53.976 42.768 53.976 23.579 0 42.762-24.214 42.763-53.977C145.9 24.214 126.717 0 103.137 0zm0 87.953c-12.342 0-22.768-15.559-22.768-33.976S90.796 20 103.137 20c12.339 0 22.762 15.56 22.763 33.977 0 18.416-10.424 33.976-22.763 33.976zM193.011 0c-23.582 0-42.767 24.214-42.768 53.978 0 29.762 19.186 53.976 42.768 53.976 23.58 0 42.763-24.214 42.763-53.977S216.591 0 193.011 0zm0 87.953c-12.342 0-22.768-15.559-22.768-33.976S180.67 20 193.011 20c12.339 0 22.763 15.56 22.763 33.977 0 18.416-10.424 33.976-22.763 33.976zM268.461 72.686c-10.026-1.975-20.148 1.055-28.506 8.529-7.576 6.775-12.965 16.688-15.175 27.913-2.209 11.216-.978 22.427 3.465 31.566 4.902 10.084 13.123 16.724 23.145 18.697 1.998.394 3.998.588 5.989.588 7.993 0 15.815-3.134 22.509-9.116 7.582-6.775 12.973-16.682 15.181-27.897 4.787-24.314-6.9-46.4-26.608-50.28zm6.983 46.416c-1.372 6.972-4.527 12.954-8.884 16.847-2.529 2.259-6.546 4.756-11.307 3.818-4.771-.939-7.539-4.77-9.021-7.818-2.553-5.251-3.203-11.983-1.83-18.958 1.375-6.984 4.53-12.974 8.884-16.867 2.151-1.923 5.38-4.018 9.237-4.018.673 0 1.366.064 2.072.202h.001c8.559 1.685 13.425 13.705 10.848 26.794zM71.362 109.129c-2.21-11.225-7.599-21.139-15.175-27.913-8.358-7.474-18.481-10.502-28.506-8.529h.001c-19.707 3.88-31.394 25.966-26.607 50.28 2.208 11.215 7.599 21.122 15.181 27.897 6.695 5.982 14.515 9.116 22.508 9.115 1.99 0 3.992-.195 5.988-.587 10.023-1.973 18.243-8.614 23.145-18.697 4.443-9.139 5.674-20.35 3.465-31.566zM49.91 131.95c-1.481 3.048-4.249 6.879-9.021 7.818-4.762.939-8.778-1.559-11.307-3.818-4.356-3.893-7.512-9.876-8.884-16.847-2.577-13.089 2.289-25.109 10.848-26.794a10.68 10.68 0 0 1 2.074-.203c3.857 0 7.086 2.095 9.236 4.019 4.354 3.893 7.509 9.883 8.884 16.867 1.373 6.975.723 13.707-1.83 18.958zM463.807 405.321c-6.462-9.805-24.301-28.981-53.021-56.995-12.624-12.314-29.287-19.094-46.926-19.094h-.028c-17.649.008-34.319 6.803-46.937 19.134-28.574 27.922-46.355 47.088-52.851 56.965-6.742 10.257-14.338 24.68-13.231 45.344.874 16.327 7.786 31.658 19.464 43.168C282.156 505.552 297.679 512 313.987 512c18.916 0 34.932-11.297 45.037-20.775 2.656-2.491 6.813-2.458 9.465.074C382.669 504.842 398.363 512 413.873 512c16.307 0 31.829-6.448 43.711-18.157 11.677-11.51 18.59-26.841 19.464-43.17 1.117-20.944-7.022-35.913-13.241-45.352zm-6.733 44.284C455.822 472.982 436.442 492 413.873 492c-12.969 0-24.327-8.247-31.571-15.165a26.86 26.86 0 0 0-18.598-7.454c-6.601 0-13.201 2.416-18.362 7.257-7.473 7.008-18.978 15.362-31.355 15.362-22.571 0-41.952-19.018-43.203-42.396-.63-11.741 2.353-21.697 9.97-33.286 3.213-4.884 13.995-18.349 50.118-53.649 18.173-17.758 47.757-17.771 65.947-.027 36.314 35.422 47.093 48.839 50.286 53.684 7.616 11.557 10.597 21.51 9.969 33.279z" transform="matrix(.11719 0 0 .11719 211 231)"/><path d="M430.405 427.331c-1.632-2.478-9.46-12.008-27.401-30.345-3.864-3.947-10.195-4.017-14.142-.154-3.948 3.862-4.017 10.193-.154 14.141 18.834 19.249 24.598 26.841 25.071 27.477 3.544 5.403 3.455 7.08 3.351 9.018-.14 2.618-2.225 4.532-3.257 4.532-5.523 0-10 4.477-10 10s4.477 10 10 10c12.116 0 22.536-10.525 23.229-23.465.392-7.35-1.486-13.295-6.697-21.204zM325.366 396.366c-21.169 21.541-26.706 29.126-27.903 30.944-5.288 8.044-7.105 13.796-6.708 21.223.686 12.816 11.012 23.342 23.018 23.466l.105.001c5.475 0 9.941-4.41 9.999-9.897.057-5.523-4.374-10.046-9.896-10.103-1.058-.011-3.111-1.889-3.253-4.536-.105-1.944-.195-3.625 3.439-9.153.172-.258 4.465-6.557 25.464-27.926 3.871-3.94 3.816-10.271-.123-14.142-3.94-3.871-10.271-3.816-14.142.123zM318.993 222.48c-23.583 0-42.768 24.214-42.768 53.977s19.186 53.977 42.768 53.977c23.58 0 42.763-24.214 42.763-53.977s-19.183-53.977-42.763-53.977zm0 87.954c-12.342 0-22.768-15.56-22.768-33.977s10.427-33.977 22.768-33.977c12.339 0 22.763 15.56 22.763 33.977s-10.424 33.977-22.763 33.977zM408.868 222.48c-23.582 0-42.768 24.214-42.768 53.977s19.186 53.977 42.768 53.977c23.579 0 42.763-24.214 42.763-53.977s-19.183-53.977-42.763-53.977zm0 87.954c-12.342 0-22.768-15.56-22.768-33.977s10.427-33.977 22.768-33.977c12.338 0 22.763 15.56 22.763 33.977s-10.424 33.977-22.763 33.977zM484.318 295.166c-10.027-1.974-20.148 1.055-28.506 8.529-7.576 6.775-12.965 16.688-15.175 27.913-2.209 11.216-.978 22.427 3.465 31.566 4.902 10.084 13.122 16.724 23.145 18.697 1.997.394 3.997.588 5.989.588 7.992-.001 15.815-3.134 22.508-9.116 7.581-6.774 12.973-16.681 15.181-27.896 4.788-24.315-6.9-46.401-26.607-50.281zm6.984 46.417c-1.372 6.97-4.528 12.953-8.884 16.846-2.529 2.26-6.544 4.757-11.308 3.818-4.772-.939-7.539-4.77-9.021-7.818-2.553-5.251-3.203-11.983-1.83-18.958 1.375-6.984 4.53-12.974 8.884-16.867 2.151-1.923 5.38-4.018 9.237-4.018.673 0 1.366.064 2.074.203 8.558 1.685 13.425 13.705 10.848 26.794zM287.22 331.609c-2.21-11.225-7.599-21.139-15.175-27.913-8.358-7.474-18.484-10.503-28.506-8.529-19.707 3.88-31.395 25.967-26.607 50.281 2.208 11.214 7.599 21.121 15.181 27.896 6.693 5.981 14.515 9.115 22.507 9.115a30.98 30.98 0 0 0 5.989-.587c10.023-1.973 18.244-8.613 23.146-18.697 4.443-9.139 5.673-20.35 3.465-31.566zm-21.453 22.82c-1.482 3.048-4.25 6.879-9.022 7.818-4.767.938-8.779-1.559-11.307-3.818-4.356-3.892-7.511-9.875-8.884-16.846-2.577-13.089 2.289-25.109 10.848-26.794h.001a10.758 10.758 0 0 1 2.074-.203c3.856 0 7.086 2.095 9.236 4.018 4.354 3.893 7.509 9.883 8.884 16.867 1.373 6.975.723 13.707-1.83 18.958z" transform="matrix(.11719 0 0 .11719 211 231)"/></g></defs><g fi:class="KUsePattern"><pattern id="b" width="350" height="350" patternUnits="userSpaceOnUse"><use xlink:href="#a" x="-350" y="-350"/><use xlink:href="#a" y="-350"/><use xlink:href="#a" x="350" y="-350"/><use xlink:href="#a" x="-350"/><use xlink:href="#a"/><use xlink:href="#a" x="350"/><use xlink:href="#a" x="-350" y="350"/><use xlink:href="#a" y="350"/><use xlink:href="#a" x="350" y="350"/></pattern><rect width="100%" height="100%" fill="url(#b)"/></g><g fi:class="KUsePattern"><pattern id="d" width="350" height="350" patternUnits="userSpaceOnUse"><use xlink:href="#c" x="-350" y="-350"/><use xlink:href="#c" y="-350"/><use xlink:href="#c" x="350" y="-350"/><use xlink:href="#c" x="-350"/><use xlink:href="#c"/><use xlink:href="#c" x="350"/><use xlink:href="#c" x="-350" y="350"/><use xlink:href="#c" y="350"/><use xlink:href="#c" x="350" y="350"/></pattern><rect width="100%" height="100%" fill="url(#d)"/></g></svg>
