<?xml version="1.0" standalone="no"?>
<!DOCTYPE svg PUBLIC "-//W3C//DTD SVG 20010904//EN"
 "http://www.w3.org/TR/2001/REC-SVG-20010904/DTD/svg10.dtd">
<svg version="1.0" xmlns="http://www.w3.org/2000/svg"
 width="512.000000pt" height="512.000000pt" viewBox="0 0 512.000000 512.000000"
 preserveAspectRatio="xMidYMid meet">
<metadata>
Created by potrace 1.11, written by Peter Selinger 2001-2013
</metadata>
<g transform="translate(0.000000,512.000000) scale(0.100000,-0.100000)"
fill="#000000" stroke="none">
<path d="M2460 5114 c-143 -29 -251 -78 -350 -159 -36 -30 -513 -503 -1062
-1052 -701 -702 -1002 -1011 -1018 -1042 -61 -123 -19 -271 100 -346 67 -42
170 -49 245 -16 25 11 84 58 135 107 l90 87 0 -1319 c1 -1021 3 -1323 13
-1335 7 -9 22 -21 34 -27 31 -17 3795 -17 3826 0 12 6 27 18 34 27 10 12 12
314 13 1335 l0 1319 90 -87 c51 -49 110 -96 135 -107 75 -33 178 -26 245 16
119 75 161 223 100 346 -16 31 -317 340 -1018 1042 -549 549 -1026 1022 -1062
1052 -75 61 -179 116 -265 140 -60 16 -238 28 -285 19z m190 -174 c39 -6 98
-26 145 -50 79 -39 94 -53 1119 -1079 l1039 -1039 -6 -39 c-9 -52 -46 -83
-100 -83 l-41 0 -1046 1044 c-1148 1146 -1075 1081 -1200 1081 -125 0 -52 65
-1200 -1081 l-1046 -1044 -41 0 c-60 0 -98 34 -98 89 l0 41 1035 1036 c1019
1019 1036 1036 1115 1074 110 55 202 69 325 50z m-52 -340 c9 0 407 -390 884
-867 l868 -868 0 -1347 0 -1348 -1790 0 -1790 0 0 1348 0 1347 863 863 c841
841 893 889 935 876 8 -2 21 -4 30 -4z"/>
<path d="M1932 3399 c-97 -19 -210 -110 -259 -210 -50 -101 -67 -251 -42 -371
44 -210 218 -392 400 -417 169 -23 316 61 395 225 100 206 53 472 -111 639
-119 120 -240 163 -383 134z m181 -191 c183 -92 256 -381 138 -551 -80 -117
-252 -114 -357 6 -63 73 -97 159 -102 258 -6 112 14 180 69 242 66 76 159 93
252 45z"/>
<path d="M3030 3400 c-104 -22 -229 -115 -295 -220 -106 -168 -123 -386 -43
-552 80 -166 227 -250 397 -227 141 20 281 132 351 282 46 98 60 162 60 265 0
85 -19 172 -53 242 -31 63 -126 156 -189 185 -61 28 -161 39 -228 25z m170
-185 c35 -19 74 -63 102 -115 20 -39 23 -59 23 -155 0 -103 -2 -114 -31 -175
-42 -87 -93 -143 -159 -176 -139 -67 -275 8 -315 175 -63 262 182 549 380 446z"/>
<path d="M1190 2611 c-172 -56 -270 -200 -270 -396 0 -159 62 -308 174 -421
103 -102 267 -165 393 -149 116 14 237 107 291 223 25 53 27 67 27 187 0 123
-2 134 -32 208 -59 142 -162 254 -293 316 -67 32 -84 36 -170 38 -52 1 -106
-1 -120 -6z m218 -186 c76 -35 116 -69 159 -133 49 -74 73 -150 73 -230 0 -84
-15 -133 -57 -182 -103 -120 -307 -71 -422 101 -49 73 -71 146 -71 236 0 187
151 286 318 208z"/>
<path d="M3705 2607 c-159 -53 -289 -179 -358 -344 -30 -74 -32 -85 -32 -208
0 -120 2 -134 27 -187 54 -116 175 -209 291 -223 126 -16 290 47 393 149 112
113 174 262 174 421 0 175 -71 299 -213 372 -44 22 -67 27 -147 30 -60 2 -110
-2 -135 -10z m227 -186 c112 -71 133 -264 43 -416 -38 -65 -110 -134 -168
-160 -76 -35 -117 -39 -180 -21 -144 42 -191 227 -105 408 44 92 99 150 181
189 86 41 165 41 229 0z"/>
<path d="M2444 2205 c-178 -38 -335 -153 -453 -328 -56 -84 -78 -128 -125
-256 l-31 -85 -68 -12 c-112 -21 -228 -84 -312 -168 -186 -189 -226 -463 -103
-699 74 -142 243 -268 403 -302 98 -20 141 -19 311 12 143 26 162 27 494 27
325 0 352 -1 470 -24 170 -33 297 -32 398 3 103 36 174 81 245 157 143 152
198 356 147 554 -28 110 -74 190 -156 272 -82 84 -197 145 -309 167 l-70 14
-31 84 c-48 129 -69 172 -125 256 -94 140 -216 244 -349 296 -119 47 -223 57
-336 32z m211 -170 c216 -57 386 -261 469 -565 21 -77 47 -98 127 -106 96 -9
162 -31 228 -75 101 -67 161 -163 183 -288 37 -217 -112 -431 -333 -477 -80
-17 -107 -15 -289 19 -105 20 -148 22 -480 22 -332 0 -375 -2 -480 -22 -181
-34 -209 -36 -287 -19 -90 19 -136 42 -207 107 -180 164 -178 460 4 621 79 70
161 103 277 111 90 6 106 21 132 116 79 294 249 498 462 555 71 19 122 19 194
1z"/>
</g>
</svg>
